<svg xmlns="http://www.w3.org/2000/svg" width="92" height="90"><path fill="none" stroke="#000" stroke-linecap="round" stroke-miterlimit="20" stroke-width="2" d="M26.4 3.52v0L39.61 39.7v0l.79-.206v0l7.612-2.456v0L35.642 3.52v0"/><path d="M31.794 44.614c.932-7.589 7.904-12.977 15.575-12.035 7.67.942 13.131 7.856 12.2 15.445a13.702 13.702 0 01-4.475 8.561l-18.759.012c-3.277-2.924-5.113-7.327-4.541-11.983z"/><path fill="none" stroke="#000" stroke-linecap="round" stroke-linejoin="round" stroke-miterlimit="20" stroke-width="2" d="M61.837 44.952c-.33-3.475-1.811-6.625-4.07-9.084l2.926-5.578h29.453zm.069 1.472c0 4.937-2.32 9.346-5.955 12.25h-.017L45.64 53.34l16.198-8.389c.045.485.069.976.069 1.472zm-32.461-1.472c.328-3.475 1.81-6.625 4.069-9.084L30.61 30.29H1.14zm-.07 1.472c0 4.937 2.32 9.346 5.954 12.25h.013l10.297-5.333-16.194-8.389c-.046.485-.07.976-.07 1.472z"/><path fill="none" stroke="#d60514" stroke-dasharray="3 3" stroke-linecap="round" stroke-miterlimit="20" d="M30.74 2.53l32 85M25.682 4.767l42.12 80.467M36.037.865L57.44 89.131"/></svg>