<svg xmlns="http://www.w3.org/2000/svg" width="93" height="93"><path d="M84.69 49.391c.034.516.122 1.035.116 1.553l1.273.851-1.482.511-.452 1.48-.895-1.263-1.544.01.909-1.175c-.182-.459-.32-.908-.56-1.355l1.504.39zm-1.31 8.547l1.11 1.078-1.556.224-.737 1.365-.635-1.395-1.517-.283 1.121-.976c-.057-.476-.216-.973-.33-1.448l1.403.662 1.31-.775zm-2.704 6.604l.915 1.282-1.57-.073-.99 1.197-.358-1.487-1.441-.555 1.295-.746-.078-1.493 1.25.903 1.447-.508zm-3.122 4.63l-.746 1.363.66 1.422-1.517-.346-1.2.994-.07-1.522-1.318-.81c.458-.17.965-.302 1.397-.509l.209-1.475 1.061 1.117zM72.9 74.524l-.987 1.196.385 1.516-1.414-.595-1.368.741.213-1.5-1.15-1.043c.496-.063.994-.13 1.46-.254l.481-1.407.837 1.29zm-5.552 4.415l-1.198.984.1 1.558-1.28-.842c-.482.19-.988.322-1.478.483l.49-1.43-.943-1.227c.508.042.98.007 1.475-.004l.736-1.288.584 1.42zm-7.694 2.697l1.425.625-1.364.734-.193 1.546-1.104-1.072c-.502.125-1.022.17-1.538.226l.744-1.32-.686-1.37 1.437.242.965-1.117zm-6.637 1.85c.416.29.852.616 1.28.874-.482.187-.978.31-1.472.47l-.477 1.47-.89-1.26c-.519-.014-1.028.041-1.55-.031.339-.36.659-.789.974-1.198l-.425-1.471 1.377.518 1.153-.904zm-6.87.61c.355.389.723.695 1.104 1.041-.51.108-1.023.207-1.537.236l-.74 1.343-.638-1.412-1.522-.3 1.174-1.013-.144-1.525 1.254.78 1.302-.653zm-6.866-.678l.898 1.222-1.565-.011-.967 1.175-.369-1.514-1.435-.598 1.342-.764.133-1.532 1.084 1.019c.472-.11.938-.27 1.41-.45zm-5.815-3.261l-.79 1.33.647 1.38-1.527-.318-1.19 1.014-.079-1.566-1.293-.87 1.457-.495.419-1.482.873 1.212zm-5.927-2.95l-1.02 1.16.376 1.488-1.432-.614-1.36.799.21-1.549-1.103-1.103 1.514-.208.689-1.385.63 1.349zM22.26 73.22l-1.21.953.089 1.538-1.291-.868-1.476.523.474-1.467-.877-1.288 1.527.073.929-1.238c.116.478.216.982.385 1.43zm-5.947-6.958c.008.503.059.99.13 1.464l1.358.618-1.368.71-.197 1.53-1.098-1.093-1.547.244.72-1.344-.617-1.435 1.475.355zm-1.996-3.53l-1.475.448-.487 1.482-.869-1.288-1.563-.05.963-1.194c-.174-.485-.233-1.013-.359-1.516l1.379.622 1.324-.816c-.09.494-.085.961-.126 1.46zm-3.935-6l-.76 1.358-.598-1.421-1.52-.337 1.172-.993a10.086 10.086 0 01-.096-1.545c.41.3.809.587 1.265.856l1.43-.555L10.9 55.5l1.014 1.065zM8.176 51.16c-.17-.498-.244-1.003-.348-1.508l-1.419-.62 1.348-.765.144-1.542 1.134 1.08 1.509-.284-.649 1.317.777 1.24-1.53-.115c-.349.39-.677.791-.966 1.197zm-.14-7.09c-.037-.517-.122-1.037-.117-1.554l-1.272-.857 1.479-.505.451-1.49.9 1.268 1.541-.01-.907 1.173c.18.463.32.913.56 1.36l-1.506-.392zm1.306-8.556l-1.11-1.082 1.558-.222.736-1.366.635 1.4 1.519.28-1.123.978c.058.472.217.973.33 1.448l-1.405-.664-1.306.775zm2.704-6.608l-.915-1.275 1.576.067.987-1.196.358 1.483 1.44.557-1.296.747.076 1.493-1.248-.904-1.447.512zm7.314-5.736c-.458.17-.962.302-1.397.51l-.207 1.474-1.064-1.115-1.523.232.746-1.361-.663-1.417 1.518.344 1.199-.99.074 1.515zm4.773-4.56c-.492.063-.99.134-1.455.256l-.478 1.408-.837-1.292-1.538-.054.984-1.196-.386-1.515 1.412.597 1.366-.746-.213 1.502zm5.55-3.622c-.506-.042-.982-.013-1.475.004l-.735 1.288-.585-1.423-1.51-.344 1.196-.985-.1-1.553 1.278.84c.482-.191.993-.325 1.48-.489l-.49 1.43zm5.405-3.917l.69 1.38-1.439-.25-.964 1.116-.309-1.502-1.421-.625 1.358-.738.196-1.542 1.098 1.071c.502-.12 1.02-.167 1.535-.224zm7.725-2.632c-.338.363-.66.794-.97 1.2l.42 1.47-1.365-.517-1.162.903-.031-1.532c-.415-.292-.848-.615-1.282-.872.483-.19.981-.31 1.478-.472l.474-1.47.89 1.264c.516.017 1.027-.043 1.548.026zm5.919 1.017l.15 1.532-1.258-.782-1.302.654.252-1.507c-.355-.39-.721-.7-1.1-1.043.51-.111 1.02-.213 1.537-.238l.737-1.343.64 1.412 1.52.297zm8.147.293l-1.34.766-.136 1.53-1.082-1.017c-.47.11-.942.265-1.41.448l.532-1.453-.895-1.217 1.56.012.97-1.18.368 1.515zm6.612 2.573l-1.454.494-.42 1.486-.87-1.215-1.477.206.788-1.33-.648-1.378 1.524.32 1.189-1.02.074 1.57zm6.034 3.74l-1.52.213-.69 1.383-.632-1.351-1.5-.066 1.02-1.157-.37-1.485 1.43.609 1.365-.793-.207 1.544zm5.225 4.778l-1.523-.076-.93 1.24c-.116-.48-.216-.982-.384-1.43l-1.45-.349 1.212-.953-.09-1.53 1.288.866 1.477-.527-.471 1.468zm1.66 6.344a10.763 10.763 0 00-.133-1.467l-1.353-.607 1.365-.717.198-1.53 1.1 1.095 1.545-.244-.72 1.348.619 1.432-1.478-.356zm2.006 3.537l1.472-.45.484-1.469.87 1.282 1.557.047-.962 1.19c.178.486.24 1.015.359 1.513l-1.374-.62-1.318.818c.089-.498.079-.962.122-1.46zm3.926 5.993l.766-1.365.595 1.427 1.52.333-1.174 1.002c.061.509.108 1.025.095 1.543-.408-.3-.806-.591-1.262-.856l-1.425.553.375-1.404-1.014-1.068zm-.164 9.215l.65-1.313-.78-1.238 1.53.113c.351-.39.68-.788.969-1.193.172.493.243 1.007.346 1.505l1.42.612-1.349.768-.143 1.532-1.133-1.072z"/><path fill="#d60514" d="M69.619 46.285c0 13.105-10.621 23.726-23.725 23.726-13.103 0-23.724-10.621-23.724-23.726 0-13.104 10.621-23.725 23.724-23.725 13.104 0 23.725 10.621 23.725 23.725"/><path d="M87.671 60.154l.311 7.472-6.181 4.216-2.088 7.843-7.833 2.181-4.13 6.236-7.484-.23-6.297 5.125-7.61-2.842-7.013 2.619-5.914-4.586-8.113.445-4.485-6.767-7.214-2.006-2.088-7.183-6.828-4.412.339-8.111-4.646-5.862 2.524-7.043L0 39.67l5.043-6.364-.313-7.473 6.185-4.215 2.087-7.847 7.832-2.18 4.131-6.231 7.483.226L38.746.46l7.612 2.843L53.37.685l5.913 4.584 8.113-.445 4.485 6.767 7.214 2.009 2.09 7.18 6.827 4.415-.34 8.111 4.646 5.862-2.523 7.04 2.923 7.58zM46.358 88.562c23.107 0 41.842-18.734 41.842-41.84 0-23.105-18.735-41.835-41.842-41.835-23.108 0-41.84 18.73-41.84 41.836 0 23.105 18.732 41.839 41.84 41.839z"/><path d="M54.603 17.733a.948.948 0 00-.943.945c0 .257.104.495.275.665l-4.555 3.91-2.636-5.91a.95.95 0 00.564-.863.956.956 0 00-.949-.95.95.95 0 00-.942.95c0 .379.228.707.555.863l-2.707 6.008-4.495-4.002a.922.922 0 00.29-.671.948.948 0 00-.944-.945.947.947 0 00-.946.945c0 .52.423.944.946.944a.943.943 0 00.237-.036l2.048 6.857h11.796l2.154-6.86c.08.02.163.04.252.04a.946.946 0 100-1.89m-2.345 9.187H40.462a1.005 1.005 0 000 2.009h11.796a1.004 1.004 0 100-2.009"/><path d="M42.977 22.23l.978-1.893-1.295-1.469a.51.51 0 00.196-.396.511.511 0 10-1.025 0c0 .205.12.381.288.462l-.739 1.836zm6.741 0l1.599-1.46-.739-1.822a.504.504 0 00.333-.476.514.514 0 00-1.026 0c0 .15.065.282.169.379l-1.314 1.486z"/><text dominant-baseline="text-before-edge" style="font-kerning:normal" fill="#fff" font-family="HanWangMingBlack" font-size="24" transform="translate(32 34)"><tspan style="font-kerning:normal">#1</tspan></text></svg>