<svg xmlns="http://www.w3.org/2000/svg" width="97" height="84"><path fill="none" stroke="#000" stroke-miterlimit="20" stroke-width="3" d="M49 67c13.807 0 25-11.193 25-25S62.807 17 49 17 24 28.193 24 42s11.193 25 25 25z"/><path d="M51.083 58.667a2.083 2.083 0 100-4.167 2.083 2.083 0 000 4.167zm4.17-4.17a2.083 2.083 0 100-4.167 2.083 2.083 0 000 4.167zm4.16-4.16a2.083 2.083 0 100-4.167 2.083 2.083 0 000 4.167zm4.17-4.17a2.083 2.083 0 100-4.167 2.083 2.083 0 000 4.167zm-5.83 15a2.083 2.083 0 100-4.167 2.083 2.083 0 000 4.167zm4.16-4.17a2.083 2.083 0 100-4.167 2.083 2.083 0 000 4.167zm4.17-4.16a2.083 2.083 0 100-4.167 2.083 2.083 0 000 4.167z"/><path fill="none" stroke="#d60514" stroke-linecap="round" stroke-miterlimit="20" stroke-width="3" d="M89 42c0 22.091-17.909 40-40 40zM9 42C9 19.909 26.909 2 49 2z"/><path fill="none" stroke="#d60514" stroke-linecap="round" stroke-miterlimit="20" stroke-width="3" d="M82.17 47.248v0l6.829-8.288v0l6.328 8.288v0M2.17 36.96v0l6.829 8.288v0l6.328-8.288v0"/></svg>