<svg width="15" height="15" fill="none" xmlns="http://www.w3.org/2000/svg"><path fill-rule="evenodd" clip-rule="evenodd" d="M14.947 4.407c-.057-1.201-.331-2.266-1.211-3.143C12.859.387 11.795.113 10.594.053c-1.238-.07-4.95-.07-6.188 0C3.208.11 2.144.384 1.264 1.26.384 2.138.113 3.202.053 4.404c-.07 1.238-.07 4.95 0 6.189.057 1.201.331 2.266 1.211 3.143.88.877 1.941 1.151 3.142 1.211 1.238.07 4.95.07 6.188 0 1.201-.057 2.265-.331 3.142-1.211.877-.877 1.151-1.942 1.211-3.143.07-1.239.07-4.947 0-6.186zm-3.443-.013a.897.897 0 100-1.794.897.897 0 000 1.794zm-4.002-.74A3.84 3.84 0 003.657 7.5a3.84 3.84 0 003.845 3.846A3.84 3.84 0 0011.347 7.5a3.84 3.84 0 00-3.845-3.846zm0 6.346a2.505 2.505 0 01-2.5-2.5c0-1.379 1.121-2.5 2.5-2.5 1.378 0 2.5 1.121 2.5 2.5S8.876 10 7.501 10zm4.42 3.347a2.531 2.531 0 001.426-1.425c.336-.845.317-2.69.305-3.888a53.165 53.165 0 010-1.068c.012-1.197.03-3.04-.305-3.888a2.53 2.53 0 00-1.426-1.425c-.846-.334-2.701-.317-3.897-.305l-.523.003-.535-.003c-1.195-.013-3.04-.031-3.886.305-.66.264-1.164.77-1.425 1.425-.334.847-.317 2.702-.305 3.899l.003.523-.003.534c-.013 1.197-.031 3.04.305 3.887a2.53 2.53 0 001.425 1.426c.847.334 2.701.317 3.898.305l.523-.003c.155 0 .336.001.534.004 1.196.012 3.04.03 3.886-.306z" fill="#000"/></svg>