<svg xmlns="http://www.w3.org/2000/svg" width="65" height="69"><path fill="none" stroke="#fff" stroke-linecap="round" stroke-miterlimit="20" stroke-width="2" d="M18.78 5.26v0l9.247 25.325v0l.553-.143v0l5.328-1.72v0L25.25 5.26v0"/><path fill="#fff" d="M22.567 33.99c.652-5.313 5.533-9.084 10.902-8.425 5.37.66 9.192 5.5 8.54 10.812a9.592 9.592 0 01-3.131 5.993l-13.132.01c-2.293-2.048-3.579-5.131-3.179-8.39z"/><path fill="none" stroke="#fff" stroke-linecap="round" stroke-linejoin="round" stroke-miterlimit="20" stroke-width="2" d="M43.584 34.263a10.905 10.905 0 00-2.848-6.358L42.784 24h20.613zm.049 1.03c0 3.457-1.624 6.543-4.168 8.576h-.009l-7.207-3.734 11.335-5.872c.032.34.049.683.049 1.03zm-22.72-1.03a10.905 10.905 0 012.849-6.358L21.729 24H1.1zm-.048 1.03c0 3.457 1.623 6.543 4.167 8.576h.01l7.207-3.734-11.336-5.872c-.032.34-.048.683-.048 1.03z"/><path fill="none" stroke="#d60514" stroke-dasharray="3 3" stroke-linecap="round" stroke-miterlimit="20" d="M20.85 2l24.159 65.947M16.915 3.666l32.016 62.511M24.962.765l15.942 68.4"/></svg>