<svg width="15" height="16" fill="none" xmlns="http://www.w3.org/2000/svg"><path fill-rule="evenodd" clip-rule="evenodd" d="M11.074 10.613l3.698 3.96a.861.861 0 01-.023 1.192.802.802 0 01-1.156-.023L9.867 11.75a6.082 6.082 0 01-3.594 1.169C2.814 12.92 0 10.022 0 6.46S2.814 0 6.273 0c3.459 0 6.273 2.898 6.273 6.46a6.556 6.556 0 01-1.472 4.153zM10.91 6.46c0-2.633-2.08-4.775-4.636-4.775-2.557 0-4.637 2.142-4.637 4.775 0 2.633 2.08 4.775 4.637 4.775 2.557 0 4.636-2.142 4.636-4.775z" fill="#fff"/></svg>