<svg xmlns="http://www.w3.org/2000/svg" width="22" height="18"><path d="M19.566 4.611c.013.192.013.383.013.575 0 5.837-4.382 12.564-12.391 12.564A12.19 12.19 0 01.5 15.768c.35.04.688.054 1.052.054a8.65 8.65 0 005.407-1.886 4.37 4.37 0 01-4.072-3.063c.27.041.539.068.822.068a4.53 4.53 0 001.146-.15c-1.995-.41-3.492-2.187-3.492-4.334v-.055a4.34 4.34 0 001.968.56A4.43 4.43 0 011.39 3.286c0-.82.216-1.572.593-2.228a12.324 12.324 0 008.98 4.62 5.052 5.052 0 01-.108-1.011c0-2.434 1.942-4.416 4.355-4.416 1.254 0 2.387.533 3.183 1.395A8.503 8.503 0 0021.157.578a4.394 4.394 0 01-1.915 2.434 8.637 8.637 0 002.508-.684 9.434 9.434 0 01-2.184 2.283z"/></svg>