<svg xmlns="http://www.w3.org/2000/svg" width="60" height="56"><path fill="#fff" d="M53.87 14.118c-3.433 1.296-8.148 2.098-13.336 2.098-5.175 0-9.89-.803-13.325-2.1-3.784-1.43-6.129-3.54-6.129-5.992 0-2.465 2.34-4.582 6.12-6.016C30.634.804 35.354 0 40.534 0c5.193 0 9.912.804 13.345 2.106 3.782 1.434 6.12 3.552 6.12 6.018 0 2.453-2.342 4.564-6.13 5.994z"/><path fill="#d60514" d="M46.776 11.132c-1.502.575-3.565.932-5.835.932-2.264 0-4.327-.357-5.83-.933-1.655-.635-2.681-1.573-2.681-2.662 0-1.095 1.024-2.035 2.678-2.673 1.502-.579 3.567-.936 5.833-.936 2.272 0 4.337.357 5.839.935 1.654.638 2.677 1.578 2.677 2.674 0 1.09-1.025 2.028-2.682 2.663z"/><path fill="#fff" d="M34.86 23.944a45.824 45.824 0 005.842.377c5.142 0 9.817-.837 13.219-2.19 3.753-1.493 6.074-3.697 6.074-6.258 0-.406-.065-.808-.19-1.213a5.142 5.142 0 00-.482-1.09 1.172 1.172 0 00-1.65-.417c-.565.36-.744 1.13-.399 1.72.113.193.197.374.249.542.044.143.067.295.067.458 0 1.41-1.729 2.804-4.524 3.916-3.143 1.25-7.512 2.024-12.364 2.024a43.58 43.58 0 01-4.134-.19 38.365 38.365 0 01-1.675-.197 6.818 6.818 0 01-.033 2.518zm-.81 8.703c2.478.377 4.917.594 6.479.594 5.189 0 9.905-.837 13.339-2.19 3.786-1.493 6.128-3.698 6.128-6.26 0-.406-.066-.809-.191-1.213a5.088 5.088 0 00-.488-1.089 1.188 1.188 0 00-1.663-.416 1.276 1.276 0 00-.403 1.72c.113.192.198.372.25.54.045.143.068.295.068.458 0 1.413-1.744 2.807-4.564 3.919-3.172 1.25-7.58 2.024-12.476 2.024-1.492 0-6.213-.45-6.2-.572l-.279 2.485zm0 9.093a47.325 47.325 0 006.289.421c5.243 0 10.01-.838 13.476-2.197 3.82-1.497 6.181-3.707 6.181-6.28a4.02 4.02 0 00-.186-1.186 5.464 5.464 0 00-.466-1.061 1.205 1.205 0 00-1.666-.46 1.265 1.265 0 00-.45 1.704c.105.186.189.373.246.562.046.149.071.296.071.44 0 1.425-1.758 2.825-4.601 3.94-3.204 1.255-7.659 2.03-12.605 2.03-1.616 0-3.16-.08-4.61-.23a39.9 39.9 0 01-1.368-.164c.025.144.039.293.039.446 0 .725-.126 1.403-.35 2.035z"/><path fill="#fff" d="M34.05 48.983c.7.105 1.427.195 2.178.267 1.439.139 2.908.211 4.388.211 5.17 0 9.868-.838 13.286-2.196 3.766-1.497 6.094-3.706 6.094-6.279 0-.38-.063-.775-.179-1.169a4.996 4.996 0 00-.473-1.1 1.182 1.182 0 00-1.657-.427c-.57.357-.754 1.127-.41 1.72.107.184.188.364.237.532.043.144.066.294.066.444 0 1.423-1.733 2.823-4.537 3.937-3.159 1.255-7.55 2.03-12.427 2.03-1.47 0-2.866-.066-4.171-.192a37.115 37.115 0 01-1.743-.21 8.38 8.38 0 01-.652 2.432zM1.476 21.672c2.247-2.615 7.262-4.642 15.145-4.642 7.884 0 12.9 2.027 15.146 4.642 1.002 1.165 1.49 2.458 1.476 3.775-.014 1.311-.526 2.603-1.523 3.772-2.309 2.707-7.416 4.838-15.099 4.838-7.682 0-12.79-2.131-15.098-4.838-.997-1.17-1.508-2.46-1.522-3.772-.014-1.317.474-2.61 1.475-3.775z"/><path fill="#d60514" d="M9.64 23.29c1.096-1.245 3.542-2.21 7.388-2.21s6.292.965 7.388 2.21c.489.555.727 1.171.72 1.798-.007.625-.256 1.24-.743 1.796-1.126 1.29-3.617 2.304-7.365 2.304s-6.239-1.015-7.365-2.304c-.487-.556-.736-1.172-.743-1.796-.007-.627.231-1.243.72-1.797z"/><path fill="#fff" d="M32.218 35.225c.378-.575.24-1.363-.307-1.76-.548-.398-1.298-.254-1.677.322-.754 1.152-2.477 2.184-4.824 2.95-2.428.79-5.471 1.26-8.79 1.26-3.317 0-6.36-.47-8.788-1.261-2.348-.765-4.07-1.797-4.825-2.95a1.17 1.17 0 00-1.676-.322c-.548.398-.686 1.186-.307 1.761 1.064 1.627 3.24 3 6.1 3.932 2.657.866 5.948 1.38 9.497 1.38 3.55 0 6.84-.514 9.498-1.38 2.86-.932 5.035-2.305 6.1-3.932z"/><path fill="#fff" d="M2.453 39.37c0-.696-.549-1.26-1.226-1.26-.678 0-1.227.564-1.227 1.26 0 2.529 1.998 4.728 5.227 6.24 2.942 1.378 6.973 2.23 11.394 2.23 4.423 0 8.453-.852 11.395-2.23 3.23-1.512 5.227-3.711 5.227-6.24 0-.696-.549-1.26-1.226-1.26-.678 0-1.227.564-1.227 1.26 0 1.454-1.448 2.86-3.79 3.956-2.63 1.231-6.297 1.993-10.379 1.993-4.08 0-7.748-.762-10.378-1.993-2.342-1.096-3.79-2.502-3.79-3.956z"/><path fill="#fff" d="M2.453 45.78c0-.657-.549-1.19-1.226-1.19-.678 0-1.227.533-1.227 1.19 0 4.586 4.413 7.465 10.061 8.678 2.087.448 4.333.673 6.56.673 2.229 0 4.474-.225 6.561-.673 5.648-1.213 10.061-4.092 10.061-8.678 0-.657-.549-1.19-1.226-1.19-.678 0-1.227.533-1.227 1.19 0 3.248-3.568 5.383-8.135 6.364-1.885.405-3.95.607-6.033.607s-4.149-.202-6.034-.607c-4.567-.98-8.135-3.116-8.135-6.364z"/></svg>