<svg xmlns="http://www.w3.org/2000/svg" width="92" height="90" viewBox="0 0 92 90"><g><g><g><path fill="none" stroke="#000" stroke-linecap="round" stroke-miterlimit="20" stroke-width="2" d="M26.4 3.52v0L39.61 39.7v0l.79-.206v0l7.612-2.456v0L35.642 3.52v0"/></g><g transform="rotate(7 45.5 44.5)"><path d="M31.91 46.283c0-7.645 6.264-13.843 13.992-13.843 7.727 0 13.991 6.197 13.991 13.843 0 3.456-1.28 6.617-3.398 9.043l-18.617 2.298c-3.609-2.503-5.968-6.65-5.968-11.341z"/></g><g><path fill="none" stroke="#000" stroke-linecap="round" stroke-linejoin="round" stroke-miterlimit="20" stroke-width="2" d="M61.837 44.952c-.33-3.475-1.811-6.625-4.07-9.084l2.926-5.578h29.453zm.069 1.472c0 4.937-2.32 9.346-5.955 12.25h-.017L45.64 53.34l16.198-8.389c.045.485.069.976.069 1.472zm-32.461-1.472c.328-3.475 1.81-6.625 4.069-9.084L30.61 30.29H1.14zm-.07 1.472c0 4.937 2.32 9.346 5.954 12.25h.013l10.297-5.333-16.194-8.389c-.046.485-.07.976-.07 1.472z"/></g><g><path fill="none" stroke="#d60514" stroke-dasharray="3 3" stroke-linecap="round" stroke-miterlimit="20" d="M30.74 2.53l32 85"/></g><g transform="rotate(-7 46.5 45)"><path fill="none" stroke="#d60514" stroke-dasharray="3 3" stroke-linecap="round" stroke-miterlimit="20" d="M30.74 2.53l32 85"/></g><g transform="rotate(7 47 45)"><path fill="none" stroke="#d60514" stroke-dasharray="3 3" stroke-linecap="round" stroke-miterlimit="20" d="M30.74 2.53l32 85"/></g></g></g></svg>