<svg xmlns="http://www.w3.org/2000/svg" width="77" height="71" viewBox="0 0 77 71"><g><g><g><g><path d="M68.635 17.987c-4.373 1.65-10.381 2.673-16.99 2.673-6.593 0-12.601-1.023-16.976-2.676-4.822-1.821-7.809-4.51-7.809-7.633 0-3.141 2.982-5.838 7.797-7.666C39.032 1.025 45.045 0 51.645 0c6.616 0 12.628 1.024 17.002 2.683 4.818 1.827 7.796 4.525 7.796 7.668 0 3.124-2.983 5.814-7.808 7.636z"/></g><g><path fill="#d60514" d="M59.596 14.19c-1.913.734-4.541 1.188-7.432 1.188-2.885 0-5.514-.455-7.428-1.189-2.11-.809-3.416-2.003-3.416-3.39 0-1.396 1.305-2.594 3.411-3.406 1.914-.738 4.545-1.193 7.433-1.193 2.894 0 5.524.455 7.438 1.192 2.108.812 3.41 2.01 3.41 3.406 0 1.388-1.305 2.583-3.416 3.392z"/></g><g><path d="M44.42 30.511a58.38 58.38 0 0 0 7.443.48c6.551 0 12.506-1.066 16.841-2.79 4.782-1.901 7.739-4.71 7.739-7.973 0-.516-.084-1.03-.242-1.545a6.551 6.551 0 0 0-.615-1.389c-.44-.751-1.38-.989-2.1-.53-.721.458-.95 1.439-.51 2.19.144.246.251.476.317.69.056.184.085.377.085.584 0 1.797-2.202 3.573-5.763 4.99-4.005 1.592-9.571 2.578-15.752 2.578-1.857 0-3.62-.084-5.267-.241a48.864 48.864 0 0 1-2.134-.251 8.688 8.688 0 0 1-.042 3.207z"/></g><g><path d="M43.39 41.595c3.157.48 6.264.757 8.254.757 6.61 0 12.62-1.067 16.994-2.791 4.825-1.902 7.808-4.711 7.808-7.975 0-.517-.085-1.03-.244-1.545a6.482 6.482 0 0 0-.621-1.387 1.514 1.514 0 0 0-2.12-.53c-.727.458-.956 1.438-.513 2.19.145.244.253.474.32.688.056.182.086.376.086.584 0 1.8-2.222 3.576-5.815 4.992-4.041 1.594-9.658 2.58-15.895 2.58-1.901 0-7.915-.574-7.898-.73l-.356 3.167z"/></g><g><path d="M43.39 53.175c.6.082 1.211.155 1.834.22 2.005.206 4.077.317 6.178.317 6.68 0 12.752-1.069 17.17-2.8 4.865-1.907 7.874-4.723 7.874-8.002a5.12 5.12 0 0 0-.237-1.51c-.138-.449-.34-.9-.594-1.352a1.535 1.535 0 0 0-2.122-.586c-.744.437-1.001 1.41-.573 2.171.133.238.24.476.313.716.059.19.09.378.09.561 0 1.816-2.239 3.6-5.862 5.02-4.082 1.6-9.757 2.587-16.059 2.587-2.058 0-4.026-.102-5.873-.293-.589-.06-1.17-.13-1.743-.21.032.184.05.374.05.568 0 .924-.16 1.788-.446 2.593z"/></g><g><path d="M43.39 62.403a53.26 53.26 0 0 0 2.775.34c1.833.176 3.705.269 5.59.269 6.586 0 12.572-1.068 16.927-2.799 4.797-1.906 7.764-4.72 7.764-7.999 0-.485-.08-.988-.228-1.49a6.366 6.366 0 0 0-.603-1.402c-.439-.755-1.383-.998-2.11-.543-.728.455-.962 1.436-.524 2.191.137.235.24.464.303.679.054.183.084.374.084.565 0 1.814-2.209 3.596-5.78 5.016-4.025 1.599-9.62 2.586-15.832 2.586-1.874 0-3.652-.084-5.315-.245-.75-.072-1.49-.161-2.22-.267a10.676 10.676 0 0 1-.831 3.099z"/></g><g><path d="M1.88 27.604c2.863-3.331 9.252-5.914 19.296-5.914 10.044 0 16.433 2.583 19.296 5.914 1.276 1.485 1.898 3.132 1.88 4.81-.018 1.67-.67 3.316-1.94 4.805-2.941 3.449-9.448 6.164-19.236 6.164-9.787 0-16.294-2.715-19.236-6.164C.67 35.729.018 34.084 0 32.413c-.017-1.677.605-3.324 1.88-4.809z"/></g><g><path fill="#d60514" d="M12.277 29.676c1.397-1.586 4.513-2.816 9.413-2.816s8.016 1.23 9.413 2.816c.622.707.925 1.492.917 2.29-.01.796-.327 1.58-.947 2.289-1.434 1.642-4.609 2.935-9.383 2.935-4.775 0-7.949-1.293-9.384-2.935-.62-.71-.937-1.493-.946-2.289-.008-.799.295-1.583.917-2.29z"/></g><g><path d="M41.044 44.88c.482-.733.307-1.738-.39-2.244-.698-.506-1.655-.322-2.137.41-.96 1.469-3.155 2.783-6.146 3.758-3.093 1.008-6.97 1.607-11.198 1.607-4.226 0-8.104-.599-11.197-1.607-2.99-.975-5.186-2.29-6.147-3.757-.482-.733-1.438-.917-2.136-.411-.698.506-.873 1.51-.39 2.244 1.355 2.072 4.126 3.82 7.77 5.008 3.386 1.104 7.58 1.759 12.1 1.759 4.522 0 8.715-.655 12.1-1.759 3.645-1.187 6.415-2.936 7.772-5.008z"/></g><g><path d="M3.126 50.156c0-.887-.7-1.606-1.563-1.606S0 49.269 0 50.156c0 3.22 2.545 6.023 6.66 7.95 3.748 1.755 8.883 2.84 14.516 2.84 5.634 0 10.769-1.085 14.517-2.84 4.115-1.927 6.66-4.73 6.66-7.95 0-.887-.7-1.606-1.563-1.606s-1.563.719-1.563 1.606c0 1.852-1.845 3.642-4.828 5.04-3.35 1.568-8.023 2.538-13.223 2.538-5.2 0-9.872-.97-13.222-2.539-2.983-1.397-4.828-3.187-4.828-5.04z"/></g><g><path d="M3.126 58.326c0-.837-.7-1.516-1.563-1.516S0 57.489 0 58.326c0 5.842 5.622 9.51 12.818 11.056 2.66.571 5.52.857 8.358.857 2.839 0 5.7-.286 8.358-.857 7.197-1.545 12.819-5.214 12.819-11.056 0-.837-.7-1.516-1.563-1.516s-1.563.679-1.563 1.516c0 4.139-4.546 6.858-10.364 8.108-2.402.516-5.034.774-7.687.774-2.653 0-5.285-.258-7.686-.774-5.819-1.25-10.365-3.97-10.365-8.108z"/></g></g></g></g></svg>