<svg xmlns="http://www.w3.org/2000/svg" width="97" height="84" viewBox="0 0 97 84"><g><g><g><g><path fill="none" stroke="#000" stroke-miterlimit="20" stroke-width="3" d="M49 67c13.807 0 25-11.193 25-25S62.807 17 49 17 24 28.193 24 42s11.193 25 25 25z"/></g><g><path d="M51.083 58.667a2.083 2.083 0 1 0 0-4.167 2.083 2.083 0 0 0 0 4.167z"/></g><g><path d="M55.253 54.497a2.083 2.083 0 1 0 0-4.167 2.083 2.083 0 0 0 0 4.167z"/></g><g><path d="M59.413 50.337a2.083 2.083 0 1 0 0-4.167 2.083 2.083 0 0 0 0 4.167z"/></g><g><path d="M63.583 46.167a2.083 2.083 0 1 0 0-4.167 2.083 2.083 0 0 0 0 4.167z"/></g><g><path d="M57.753 61.167a2.083 2.083 0 1 0 0-4.167 2.083 2.083 0 0 0 0 4.167z"/></g><g><path d="M61.913 56.997a2.083 2.083 0 1 0 0-4.167 2.083 2.083 0 0 0 0 4.167z"/></g><g><path d="M66.083 52.837a2.083 2.083 0 1 0 0-4.167 2.083 2.083 0 0 0 0 4.167z"/></g></g><g><path fill="none" stroke="#d60514" stroke-linecap="round" stroke-miterlimit="20" stroke-width="3" d="M89 42c0 22.091-17.909 40-40 40zM9 42C9 19.909 26.909 2 49 2z"/></g><g><path fill="none" stroke="#d60514" stroke-linecap="round" stroke-miterlimit="20" stroke-width="3" d="M82.17 47.248v0l6.829-8.288v0l6.328 8.288v0"/></g><g><path fill="none" stroke="#d60514" stroke-linecap="round" stroke-miterlimit="20" stroke-width="3" d="M2.17 36.96v0l6.829 8.288v0l6.328-8.288v0"/></g></g></g></svg>