<svg xmlns="http://www.w3.org/2000/svg" width="20" height="19" viewBox="0 0 20 19"><g><g><path d="M17.811 9.625c0-1.364.113-4.293-.376-5.527a3.164 3.164 0 0 0-1.782-1.782c-1.23-.486-4.162-.377-5.526-.377-1.364 0-4.292-.113-5.526.377A3.164 3.164 0 0 0 2.82 4.098c-.486 1.23-.377 4.163-.377 5.527 0 1.364-.113 4.293.377 5.527.33.824.962 1.456 1.781 1.782 1.23.486 4.162.377 5.526.377 1.364 0 4.292.113 5.526-.377a3.164 3.164 0 0 0 1.782-1.782c.49-1.23.376-4.163.376-5.527zm1.623 3.866c-.075 1.502-.418 2.832-1.514 3.929-1.096 1.1-2.426 1.443-3.928 1.514-1.548.088-6.186.088-7.734 0-1.502-.075-2.828-.418-3.928-1.514-1.1-1.097-1.443-2.427-1.514-3.93-.088-1.547-.088-6.187 0-7.735.075-1.502.414-2.833 1.514-3.929C3.43.73 4.76.387 6.258.316c1.548-.088 6.186-.088 7.734 0 1.502.075 2.832.418 3.928 1.514 1.1 1.097 1.443 2.427 1.514 3.93.088 1.547.088 6.183 0 7.73zm-3.183-8.87c0 .623-.502 1.121-1.121 1.121a1.121 1.121 0 1 1 1.121-1.121zm-6.124 8.13a3.13 3.13 0 0 0 3.125-3.126A3.128 3.128 0 0 0 10.127 6.5a3.128 3.128 0 0 0-3.125 3.125 3.13 3.13 0 0 0 3.125 3.125zm4.806-3.126a4.8 4.8 0 0 1-4.806 4.807 4.8 4.8 0 0 1-4.806-4.807 4.8 4.8 0 0 1 4.806-4.807 4.8 4.8 0 0 1 4.806 4.807z"/></g></g></svg>