<svg width="15" height="15" viewBox="0 0 15 15" fill="none" xmlns="http://www.w3.org/2000/svg">
<path fill-rule="evenodd" clip-rule="evenodd" d="M14.9473 4.40729C14.8904 3.20568 14.616 2.1413 13.7359 1.26436C12.8592 0.387426 11.795 0.112964 10.5937 0.0527167C9.35555 -0.0175722 5.64445 -0.0175722 4.4063 0.0527167C3.20831 0.109617 2.14417 0.384079 1.26408 1.26102C0.383993 2.13796 0.112939 3.20233 0.052705 4.40394C-0.0175683 5.64236 -0.0175683 9.35429 0.052705 10.5927C0.109593 11.7943 0.383993 12.8587 1.26408 13.7356C2.14417 14.6126 3.20496 14.887 4.4063 14.9473C5.64445 15.0176 9.35555 15.0176 10.5937 14.9473C11.795 14.8904 12.8592 14.6159 13.7359 13.7356C14.6127 12.8587 14.8871 11.7943 14.9473 10.5927C15.0176 9.35429 15.0176 5.64571 14.9473 4.40729ZM11.5039 4.3939C11.9992 4.3939 12.4007 3.99559 12.4007 3.49688C12.4007 3.00151 11.9992 2.59985 11.5039 2.59985C11.0086 2.59985 10.6071 3.00151 10.6071 3.49688C10.6071 3.99225 11.0053 4.3939 11.5039 4.3939ZM7.50167 3.65419C5.3734 3.65419 3.65672 5.37125 3.65672 7.5C3.65672 9.62875 5.3734 11.3458 7.50167 11.3458C9.62995 11.3458 11.3466 9.62875 11.3466 7.5C11.3466 5.37125 9.62995 3.65419 7.50167 3.65419ZM7.50167 10.0003C6.12632 10.0003 5.00195 8.879 5.00195 7.5C5.00195 6.121 6.12298 4.99972 7.50167 4.99972C8.88037 4.99972 10.0014 6.121 10.0014 7.5C10.0014 8.879 8.87702 10.0003 7.50167 10.0003ZM11.9222 13.3474C12.5814 13.083 13.0867 12.5775 13.3477 11.9215C13.6836 11.0775 13.6649 9.23123 13.6528 8.03442C13.6507 7.8359 13.6489 7.65525 13.6489 7.5C13.6489 7.34473 13.6507 7.1641 13.6528 6.96564C13.6649 5.76948 13.6835 3.92537 13.3477 3.07849C13.0834 2.41911 12.5781 1.9137 11.9222 1.65263C11.0757 1.31856 9.22091 1.33635 8.02472 1.34783C7.83067 1.34969 7.65395 1.35139 7.50167 1.35139C7.34643 1.35139 7.16585 1.34956 6.96743 1.34755C5.77153 1.33543 3.92784 1.31674 3.08115 1.65263C2.42192 1.91705 1.91662 2.42246 1.65561 3.07849C1.32161 3.92518 1.3394 5.78038 1.35088 6.97684C1.35274 7.17093 1.35443 7.34769 1.35443 7.5C1.35443 7.65527 1.3526 7.8359 1.35059 8.03436C1.33848 9.23053 1.3198 11.0746 1.65561 11.9215C1.91997 12.5809 2.42527 13.0863 3.08115 13.3474C3.92765 13.6814 5.78244 13.6636 6.97863 13.6522C7.17268 13.6503 7.3494 13.6486 7.50167 13.6486C7.65691 13.6486 7.8375 13.6504 8.03591 13.6525C9.23181 13.6646 11.0755 13.6833 11.9222 13.3474Z" fill="white"/>
</svg>
