<svg xmlns="http://www.w3.org/2000/svg" width="65" height="69" viewBox="0 0 65 69"><g><g><g><path fill="none" stroke="#fff" stroke-linecap="round" stroke-miterlimit="20" stroke-width="2" d="M18.78 5.26v0l9.247 25.325v0l.553-.143v0l5.328-1.72v0L25.25 5.26v0"/></g><g transform="rotate(7 32.5 34)"><path fill="#fff" d="M22.64 35.2c0-5.352 4.385-9.69 9.794-9.69 5.41 0 9.794 4.338 9.794 9.69 0 2.42-.896 4.632-2.378 6.33l-13.032 1.61c-2.526-1.753-4.178-4.656-4.178-7.94z"/></g><g><path fill="none" stroke="#fff" stroke-linecap="round" stroke-linejoin="round" stroke-miterlimit="20" stroke-width="2" d="M43.584 34.263a10.905 10.905 0 0 0-2.848-6.358L42.784 24h20.613zm.049 1.03c0 3.457-1.624 6.543-4.168 8.576h-.009l-7.207-3.734 11.335-5.872c.032.34.049.683.049 1.03zm-22.72-1.03a10.905 10.905 0 0 1 2.849-6.358L21.729 24H1.1zm-.048 1.03c0 3.457 1.623 6.543 4.167 8.576h.01l7.207-3.734-11.336-5.872c-.032.34-.048.683-.048 1.03z"/></g><g><path fill="none" stroke="#d60514" stroke-dasharray="3 3" stroke-linecap="round" stroke-miterlimit="20" d="M20.85 2l24.159 65.947"/></g><g transform="rotate(-7 32.5 35)"><path fill="none" stroke="#d60514" stroke-dasharray="3 3" stroke-linecap="round" stroke-miterlimit="20" d="M20.85 2l24.159 65.947"/></g><g transform="rotate(7 33 35)"><path fill="none" stroke="#d60514" stroke-dasharray="3 3" stroke-linecap="round" stroke-miterlimit="20" d="M20.85 2l24.159 65.947"/></g></g></g></svg>