<svg width="15" height="16" viewBox="0 0 15 16" fill="none" xmlns="http://www.w3.org/2000/svg">
<path fill-rule="evenodd" clip-rule="evenodd" d="M11.0742 10.6129L14.7719 14.5735C15.0848 14.9085 15.0744 15.4428 14.7493 15.7649C14.5963 15.9166 14.3947 16 14.1823 16C13.9578 16 13.7484 15.9082 13.5926 15.7416L9.86678 11.751C8.80883 12.5167 7.57143 12.92 6.27293 12.92C2.81409 12.92 0 10.022 0 6.45999C0 2.89801 2.81409 0 6.27293 0C9.73177 0 12.5459 2.89801 12.5459 6.45999C12.5459 7.98455 12.0249 9.44901 11.0742 10.6129ZM10.9094 6.45999C10.9094 3.82712 8.82956 1.68522 6.27293 1.68522C3.7163 1.68522 1.63642 3.82712 1.63642 6.45999C1.63642 9.09286 3.7163 11.2348 6.27293 11.2348C8.82956 11.2348 10.9094 9.09286 10.9094 6.45999Z" fill="white"/>
</svg>
