<svg xmlns="http://www.w3.org/2000/svg" width="22" height="18" viewBox="0 0 22 18"><g><g><path d="M19.566 4.611c.013.192.013.383.013.575 0 5.837-4.382 12.564-12.391 12.564-2.468 0-4.76-.725-6.688-1.982.35.04.688.054 1.052.054 2.036 0 3.91-.697 5.407-1.886a4.37 4.37 0 0 1-4.072-3.063c.27.041.539.068.822.068.391 0 .782-.054 1.146-.15-1.995-.41-3.492-2.187-3.492-4.334v-.055a4.34 4.34 0 0 0 1.968.56A4.43 4.43 0 0 1 1.39 3.286c0-.82.216-1.572.593-2.228a12.324 12.324 0 0 0 8.98 4.62 5.052 5.052 0 0 1-.108-1.011c0-2.434 1.942-4.416 4.355-4.416 1.254 0 2.387.533 3.183 1.395A8.503 8.503 0 0 0 21.157.578a4.394 4.394 0 0 1-1.915 2.434 8.637 8.637 0 0 0 2.508-.684 9.434 9.434 0 0 1-2.184 2.283z"/></g></g></svg>