<svg width="20" height="14" viewBox="0 0 20 14" fill="none" xmlns="http://www.w3.org/2000/svg">
<path fill-rule="evenodd" clip-rule="evenodd" d="M17.8139 0.41876C18.6744 0.649214 19.3521 1.32829 19.5821 2.19053C20 3.75339 20 7.01415 20 7.01415C20 7.01415 20 10.2749 19.5821 11.8378C19.3521 12.7 18.6744 13.3508 17.8139 13.5812C16.2541 14 10 14 10 14C10 14 3.74586 14 2.18613 13.5812C1.32565 13.3508 0.647936 12.7 0.417919 11.8378C0 10.2749 0 7.01415 0 7.01415C0 7.01415 0 3.75339 0.417919 2.19053C0.647936 1.32829 1.32565 0.64925 2.18613 0.41876C3.74586 0 10 0 10 0C10 0 16.2542 0 17.8139 0.41876ZM13.1818 7.01422L7.95453 4.05362V9.97467L13.1818 7.01422Z" fill="white"/>
</svg>
